<svg width="17" height="21" viewBox="0 0 17 21" fill="none" xmlns="http://www.w3.org/2000/svg">
<path d="M8.5 20.625C7.07906 19.413 5.76197 18.0842 4.5625 16.6527C2.7625 14.5028 0.625001 11.301 0.625001 8.25004C0.62422 6.69187 1.0857 5.16849 1.95103 3.8727C2.81636 2.5769 4.04666 1.56693 5.4862 0.970615C6.92575 0.374296 8.50984 0.218431 10.038 0.522746C11.5662 0.82706 12.9697 1.57787 14.071 2.68017C14.8042 3.41013 15.3854 4.27827 15.7809 5.23434C16.1764 6.1904 16.3783 7.21541 16.375 8.25004C16.375 11.301 14.2375 14.5028 12.4375 16.6527C11.238 18.0842 9.92094 19.413 8.5 20.625ZM8.5 4.87504C7.6049 4.87504 6.74645 5.23062 6.11352 5.86356C5.48058 6.49649 5.125 7.35494 5.125 8.25004C5.125 9.14515 5.48058 10.0036 6.11352 10.6365C6.74645 11.2695 7.6049 11.625 8.5 11.625C9.39511 11.625 10.2536 11.2695 10.8865 10.6365C11.5194 10.0036 11.875 9.14515 11.875 8.25004C11.875 7.35494 11.5194 6.49649 10.8865 5.86356C10.2536 5.23062 9.39511 4.87504 8.5 4.87504Z" fill="#5F5F5F"/>
</svg>
