<svg width="25" height="25" viewBox="0 0 25 25" fill="none" xmlns="http://www.w3.org/2000/svg">
<path d="M8.33325 2.08333H4.16659C3.01599 2.08333 2.08325 3.01607 2.08325 4.16666V20.8333C2.08325 21.9839 3.01599 22.9167 4.16659 22.9167H8.33325C9.48384 22.9167 10.4166 21.9839 10.4166 20.8333V4.16666C10.4166 3.01607 9.48384 2.08333 8.33325 2.08333Z" stroke="black" stroke-width="2" stroke-linecap="round" stroke-linejoin="round"/>
<path d="M20.8333 2.08333H16.6666C15.516 2.08333 14.5833 3.01607 14.5833 4.16666V8.33333C14.5833 9.48392 15.516 10.4167 16.6666 10.4167H20.8333C21.9838 10.4167 22.9166 9.48392 22.9166 8.33333V4.16666C22.9166 3.01607 21.9838 2.08333 20.8333 2.08333Z" stroke="black" stroke-width="2" stroke-linecap="round" stroke-linejoin="round"/>
<path d="M20.8333 14.5833H16.6666C15.516 14.5833 14.5833 15.5161 14.5833 16.6667V20.8333C14.5833 21.9839 15.516 22.9167 16.6666 22.9167H20.8333C21.9838 22.9167 22.9166 21.9839 22.9166 20.8333V16.6667C22.9166 15.5161 21.9838 14.5833 20.8333 14.5833Z" stroke="black" stroke-width="2" stroke-linecap="round" stroke-linejoin="round"/>
</svg>
