<svg width="25" height="20" viewBox="0 0 25 20" fill="none" xmlns="http://www.w3.org/2000/svg">
<path d="M12.5 8.83804C8.5808 8.83804 7.7866 4.64454 7.7866 4.64454C7.32044 2.46246 8.73619 0 12.4482 0C16.1775 0 17.5932 2.46246 17.1271 4.64454C17.1271 4.64454 16.4192 8.83804 12.5 8.83804ZM12.5 11.971L17.1961 9.75232C21.3225 9.75232 25 12.5927 25 15.2746V18.31C25 18.31 18.6982 19.6875 12.5 19.6875C6.1982 19.6875 0 18.31 0 18.31V15.2746C0 12.5317 3.34945 9.81328 7.71754 9.81328L12.5 11.971Z" fill="black"/>
</svg>
