<svg width="25" height="25" viewBox="0 0 25 25" fill="none" xmlns="http://www.w3.org/2000/svg">
<g clip-path="url(#clip0_66_419)">
<path d="M22.3958 4.16658H19.618V6.24992C19.618 6.45055 19.5785 6.64921 19.5017 6.83457C19.4249 7.01993 19.3124 7.18835 19.1705 7.33022C19.0287 7.47209 18.8603 7.58462 18.6749 7.6614C18.4895 7.73818 18.2909 7.7777 18.0902 7.7777C17.8896 7.7777 17.6909 7.73818 17.5056 7.6614C17.3202 7.58462 17.1518 7.47209 17.0099 7.33022C16.8681 7.18835 16.7555 7.01993 16.6788 6.83457C16.602 6.64921 16.5625 6.45055 16.5625 6.24992V4.16658H8.47218V6.24992C8.47218 6.65511 8.31122 7.04371 8.02471 7.33022C7.73819 7.61673 7.3496 7.7777 6.94441 7.7777C6.53921 7.7777 6.15062 7.61673 5.8641 7.33022C5.57759 7.04371 5.41663 6.65511 5.41663 6.24992V4.16658H2.63885C2.47359 4.1647 2.30963 4.19598 2.15667 4.25857C2.0037 4.32116 1.86485 4.41379 1.7483 4.53098C1.63176 4.64817 1.53991 4.78753 1.47817 4.94084C1.41642 5.09415 1.38605 5.25828 1.38885 5.42353V20.9652C1.38609 21.1275 1.41534 21.2888 1.47492 21.4398C1.53451 21.5909 1.62326 21.7287 1.73612 21.8454C1.84897 21.9621 1.98371 22.0555 2.13265 22.1201C2.28158 22.1848 2.44179 22.2194 2.60413 22.2221H22.3958C22.5581 22.2194 22.7183 22.1848 22.8673 22.1201C23.0162 22.0555 23.151 21.9621 23.2638 21.8454C23.3767 21.7287 23.4654 21.5909 23.525 21.4398C23.5846 21.2888 23.6138 21.1275 23.6111 20.9652V5.42353C23.6138 5.26119 23.5846 5.09991 23.525 4.94888C23.4654 4.79785 23.3767 4.66004 23.2638 4.54331C23.151 4.42659 23.0162 4.33324 22.8673 4.2686C22.7183 4.20396 22.5581 4.1693 22.3958 4.16658ZM6.94441 18.0555H5.55552V16.6666H6.94441V18.0555ZM6.94441 14.5833H5.55552V13.1944H6.94441V14.5833ZM6.94441 11.111H5.55552V9.72214H6.94441V11.111ZM11.1111 18.0555H9.72218V16.6666H11.1111V18.0555ZM11.1111 14.5833H9.72218V13.1944H11.1111V14.5833ZM11.1111 11.111H9.72218V9.72214H11.1111V11.111ZM15.2777 18.0555H13.8889V16.6666H15.2777V18.0555ZM15.2777 14.5833H13.8889V13.1944H15.2777V14.5833ZM15.2777 11.111H13.8889V9.72214H15.2777V11.111ZM19.4444 18.0555H18.0555V16.6666H19.4444V18.0555ZM19.4444 14.5833H18.0555V13.1944H19.4444V14.5833ZM19.4444 11.111H18.0555V9.72214H19.4444V11.111Z" fill="#5F5F5F"/>
<path d="M6.94444 6.94447C7.12862 6.94447 7.30526 6.87131 7.43549 6.74107C7.56572 6.61084 7.63889 6.43421 7.63889 6.25003V2.08336C7.63889 1.89918 7.56572 1.72255 7.43549 1.59231C7.30526 1.46208 7.12862 1.38892 6.94444 1.38892C6.76027 1.38892 6.58363 1.46208 6.4534 1.59231C6.32316 1.72255 6.25 1.89918 6.25 2.08336V6.25003C6.25 6.43421 6.32316 6.61084 6.4534 6.74107C6.58363 6.87131 6.76027 6.94447 6.94444 6.94447Z" fill="#5F5F5F"/>
<path d="M18.0555 6.94447C18.2397 6.94447 18.4163 6.87131 18.5466 6.74107C18.6768 6.61084 18.75 6.43421 18.75 6.25003V2.08336C18.75 1.89918 18.6768 1.72255 18.5466 1.59231C18.4163 1.46208 18.2397 1.38892 18.0555 1.38892C17.8714 1.38892 17.6947 1.46208 17.5645 1.59231C17.4342 1.72255 17.3611 1.89918 17.3611 2.08336V6.25003C17.3611 6.43421 17.4342 6.61084 17.5645 6.74107C17.6947 6.87131 17.8714 6.94447 18.0555 6.94447Z" fill="#5F5F5F"/>
</g>
<defs>
<clipPath id="clip0_66_419">
<rect width="25" height="25" fill="white"/>
</clipPath>
</defs>
</svg>
