<svg width="25" height="25" viewBox="0 0 25 25" fill="none" xmlns="http://www.w3.org/2000/svg">
<g clip-path="url(#clip0_62_122)">
<path d="M22.4513 4.16668C22.3567 4.15692 22.2613 4.15692 22.1666 4.16668H2.72218C2.59756 4.1686 2.47376 4.18728 2.35413 4.22223L12.3888 14.2153L22.4513 4.16668Z" fill="#5F5F5F"/>
<path d="M23.4792 5.13196L13.3681 15.2014C13.1079 15.4601 12.7559 15.6053 12.3889 15.6053C12.022 15.6053 11.67 15.4601 11.4098 15.2014L1.38894 5.20835C1.35814 5.32157 1.3418 5.43824 1.34033 5.55557V19.4445C1.34033 19.8128 1.48666 20.1661 1.74713 20.4266C2.0076 20.687 2.36086 20.8333 2.72922 20.8333H22.1737C22.542 20.8333 22.8953 20.687 23.1558 20.4266C23.4162 20.1661 23.5626 19.8128 23.5626 19.4445V5.55557C23.557 5.41089 23.5289 5.26795 23.4792 5.13196V5.13196ZM3.68061 19.4445H2.71533V18.4514L7.76394 13.4445L8.74311 14.4236L3.68061 19.4445ZM22.1598 19.4445H21.1876L16.1251 14.4236L17.1042 13.4445L22.1528 18.4514L22.1598 19.4445Z" fill="#5F5F5F"/>
</g>
<defs>
<clipPath id="clip0_62_122">
<rect width="25" height="25" fill="white"/>
</clipPath>
</defs>
</svg>
