<svg width="15" height="21" viewBox="0 0 15 21" fill="none" xmlns="http://www.w3.org/2000/svg">
<path d="M11.58 2H8V0H15V7H13V3.41L9.17 7.24C9.62194 7.92243 9.89944 8.70537 9.97812 9.52009C10.0568 10.3348 9.93428 11.1564 9.62129 11.9127C9.3083 12.669 8.81443 13.3369 8.18303 13.8578C7.55163 14.3786 6.80202 14.7365 6 14.9V17H8V19H6V21H4V19H2V17H4V14.9C2.87064 14.6695 1.8556 14.0558 1.12669 13.1629C0.397783 12.27 -0.000235151 11.1527 1.04228e-07 10C1.04228e-07 8.67392 0.526784 7.40215 1.46447 6.46447C2.40215 5.52678 3.67392 5 5 5C6 5 6.96 5.3 7.75 5.83L11.58 2ZM5 7C4.20435 7 3.44129 7.31607 2.87868 7.87868C2.31607 8.44129 2 9.20435 2 10C2 10.7956 2.31607 11.5587 2.87868 12.1213C3.44129 12.6839 4.20435 13 5 13C5.79565 13 6.55871 12.6839 7.12132 12.1213C7.68393 11.5587 8 10.7956 8 10C8 9.20435 7.68393 8.44129 7.12132 7.87868C6.55871 7.31607 5.79565 7 5 7Z" fill="#5F5F5F"/>
</svg>
