<svg width="25" height="25" viewBox="0 0 25 25" fill="none" xmlns="http://www.w3.org/2000/svg">
<path d="M9.37492 20.8333H6.24992C5.14485 20.8333 4.08504 20.3943 3.30364 19.6129C2.52224 18.8315 2.08325 17.7717 2.08325 16.6667V7.29167C2.08325 6.1866 2.52224 5.12679 3.30364 4.34539C4.08504 3.56399 5.14485 3.125 6.24992 3.125H17.7083C18.8133 3.125 19.8731 3.56399 20.6545 4.34539C21.4359 5.12679 21.8749 6.1866 21.8749 7.29167V10.4167M8.33325 2.08333V4.16667M15.6249 2.08333V4.16667M2.08325 8.33333H21.8749M19.2708 16.2948L17.7083 17.8573" stroke="black" stroke-width="2" stroke-linecap="round" stroke-linejoin="round"/>
<path d="M17.7083 22.9167C20.5848 22.9167 22.9167 20.5848 22.9167 17.7083C22.9167 14.8319 20.5848 12.5 17.7083 12.5C14.8319 12.5 12.5 14.8319 12.5 17.7083C12.5 20.5848 14.8319 22.9167 17.7083 22.9167Z" stroke="black" stroke-width="2" stroke-linecap="round" stroke-linejoin="round"/>
</svg>
