<svg width="25" height="25" viewBox="0 0 25 25" fill="none" xmlns="http://www.w3.org/2000/svg">
<path d="M6.25008 6.25C7.40067 6.25 8.33341 5.31726 8.33341 4.16667C8.33341 3.01608 7.40067 2.08334 6.25008 2.08334C5.09949 2.08334 4.16675 3.01608 4.16675 4.16667C4.16675 5.31726 5.09949 6.25 6.25008 6.25Z" fill="black"/>
<path d="M9.37492 7.29166H3.12492C2.84865 7.29166 2.5837 7.40141 2.38835 7.59676C2.193 7.79211 2.08325 8.05706 2.08325 8.33333V15.625H4.16659V22.9167H8.33325V15.625H10.4166V8.33333C10.4166 8.05706 10.3068 7.79211 10.1115 7.59676C9.91614 7.40141 9.65119 7.29166 9.37492 7.29166Z" fill="black"/>
<path d="M17.7083 6.25C18.8589 6.25 19.7917 5.31726 19.7917 4.16667C19.7917 3.01608 18.8589 2.08334 17.7083 2.08334C16.5577 2.08334 15.625 3.01608 15.625 4.16667C15.625 5.31726 16.5577 6.25 17.7083 6.25Z" fill="black"/>
<path d="M21.0521 8.05208C20.9891 7.82677 20.852 7.62923 20.6631 7.49128C20.4741 7.35334 20.2442 7.28302 20.0104 7.29167H15.3229C15.0891 7.28302 14.8592 7.35334 14.6702 7.49128C14.4813 7.62923 14.3443 7.82677 14.2813 8.05208L12.5 14.5833H14.5833L13.5417 18.75H15.625V22.9167H19.7917V18.75H21.875L20.8333 14.5833H22.9167L21.0521 8.05208Z" fill="black"/>
</svg>
