<svg width="19" height="21" viewBox="0 0 19 21" fill="none" xmlns="http://www.w3.org/2000/svg">
<path fill-rule="evenodd" clip-rule="evenodd" d="M1.6875 0.34375C1.4803 0.34375 1.28159 0.42606 1.13507 0.572573C0.98856 0.719086 0.90625 0.9178 0.90625 1.125C0.90625 1.3322 0.98856 1.53091 1.13507 1.67743C1.28159 1.82394 1.4803 1.90625 1.6875 1.90625V19.0938H0.90625C0.69905 19.0938 0.500336 19.1761 0.353823 19.3226C0.20731 19.4691 0.125 19.6678 0.125 19.875C0.125 20.0822 0.20731 20.2809 0.353823 20.4274C0.500336 20.5739 0.69905 20.6562 0.90625 20.6562H18.0938C18.301 20.6562 18.4997 20.5739 18.6462 20.4274C18.7927 20.2809 18.875 20.0822 18.875 19.875C18.875 19.6678 18.7927 19.4691 18.6462 19.3226C18.4997 19.1761 18.301 19.0938 18.0938 19.0938H17.3125V1.90625C17.5197 1.90625 17.7184 1.82394 17.8649 1.67743C18.0114 1.53091 18.0938 1.3322 18.0938 1.125C18.0938 0.9178 18.0114 0.719086 17.8649 0.572573C17.7184 0.42606 17.5197 0.34375 17.3125 0.34375H1.6875ZM6.375 4.25C6.1678 4.25 5.96909 4.33231 5.82257 4.47882C5.67606 4.62534 5.59375 4.82405 5.59375 5.03125C5.59375 5.23845 5.67606 5.43716 5.82257 5.58368C5.96909 5.73019 6.1678 5.8125 6.375 5.8125H7.9375C8.1447 5.8125 8.34341 5.73019 8.48993 5.58368C8.63644 5.43716 8.71875 5.23845 8.71875 5.03125C8.71875 4.82405 8.63644 4.62534 8.48993 4.47882C8.34341 4.33231 8.1447 4.25 7.9375 4.25H6.375ZM5.59375 8.15625C5.59375 7.94905 5.67606 7.75034 5.82257 7.60382C5.96909 7.45731 6.1678 7.375 6.375 7.375H7.9375C8.1447 7.375 8.34341 7.45731 8.48993 7.60382C8.63644 7.75034 8.71875 7.94905 8.71875 8.15625C8.71875 8.36345 8.63644 8.56216 8.48993 8.70868C8.34341 8.85519 8.1447 8.9375 7.9375 8.9375H6.375C6.1678 8.9375 5.96909 8.85519 5.82257 8.70868C5.67606 8.56216 5.59375 8.36345 5.59375 8.15625ZM6.375 10.5C6.1678 10.5 5.96909 10.5823 5.82257 10.7288C5.67606 10.8753 5.59375 11.074 5.59375 11.2812C5.59375 11.4885 5.67606 11.6872 5.82257 11.8337C5.96909 11.9802 6.1678 12.0625 6.375 12.0625H7.9375C8.1447 12.0625 8.34341 11.9802 8.48993 11.8337C8.63644 11.6872 8.71875 11.4885 8.71875 11.2812C8.71875 11.074 8.63644 10.8753 8.48993 10.7288C8.34341 10.5823 8.1447 10.5 7.9375 10.5H6.375ZM10.2812 5.03125C10.2812 4.82405 10.3636 4.62534 10.5101 4.47882C10.6566 4.33231 10.8553 4.25 11.0625 4.25H12.625C12.8322 4.25 13.0309 4.33231 13.1774 4.47882C13.3239 4.62534 13.4062 4.82405 13.4062 5.03125C13.4062 5.23845 13.3239 5.43716 13.1774 5.58368C13.0309 5.73019 12.8322 5.8125 12.625 5.8125H11.0625C10.8553 5.8125 10.6566 5.73019 10.5101 5.58368C10.3636 5.43716 10.2812 5.23845 10.2812 5.03125ZM11.0625 7.375C10.8553 7.375 10.6566 7.45731 10.5101 7.60382C10.3636 7.75034 10.2812 7.94905 10.2812 8.15625C10.2812 8.36345 10.3636 8.56216 10.5101 8.70868C10.6566 8.85519 10.8553 8.9375 11.0625 8.9375H12.625C12.8322 8.9375 13.0309 8.85519 13.1774 8.70868C13.3239 8.56216 13.4062 8.36345 13.4062 8.15625C13.4062 7.94905 13.3239 7.75034 13.1774 7.60382C13.0309 7.45731 12.8322 7.375 12.625 7.375H11.0625ZM10.2812 11.2812C10.2812 11.074 10.3636 10.8753 10.5101 10.7288C10.6566 10.5823 10.8553 10.5 11.0625 10.5H12.625C12.8322 10.5 13.0309 10.5823 13.1774 10.7288C13.3239 10.8753 13.4062 11.074 13.4062 11.2812C13.4062 11.4885 13.3239 11.6872 13.1774 11.8337C13.0309 11.9802 12.8322 12.0625 12.625 12.0625H11.0625C10.8553 12.0625 10.6566 11.9802 10.5101 11.8337C10.3636 11.6872 10.2812 11.4885 10.2812 11.2812ZM6.375 18.3125V15.9687C6.375 15.7615 6.45731 15.5628 6.60382 15.4163C6.75034 15.2698 6.94905 15.1875 7.15625 15.1875H11.8438C12.051 15.1875 12.2497 15.2698 12.3962 15.4163C12.5427 15.5628 12.625 15.7615 12.625 15.9687V18.3125C12.625 18.5197 12.5427 18.7184 12.3962 18.8649C12.2497 19.0114 12.051 19.0938 11.8438 19.0938H7.15625C6.94905 19.0938 6.75034 19.0114 6.60382 18.8649C6.45731 18.7184 6.375 18.5197 6.375 18.3125Z" fill="#5F5F5F"/>
</svg>
