<svg width="21" height="22" viewBox="0 0 21 22" fill="none" xmlns="http://www.w3.org/2000/svg">
<path d="M19.1797 3.32501L16.5796 0.607798C16.3962 0.415099 16.1782 0.262206 15.9381 0.157901C15.698 0.0535959 15.4406 -6.51713e-05 15.1807 5.93995e-08C14.6509 5.93995e-08 14.1528 0.217071 13.7793 0.607798L10.9814 3.53442C10.7972 3.72628 10.6511 3.95431 10.5513 4.20543C10.4516 4.45656 10.4003 4.72581 10.4004 4.99773C10.4004 5.5519 10.6079 6.07287 10.9814 6.4636L13.0273 8.60366C12.5484 9.70781 11.8826 10.7123 11.062 11.5686C10.2435 12.4291 9.28327 13.1281 8.22754 13.632L6.18164 11.492C5.99823 11.2993 5.78022 11.1464 5.54015 11.0421C5.30008 10.9378 5.04267 10.8841 4.78272 10.8842C4.25293 10.8842 3.75488 11.1012 3.38135 11.492L0.581056 14.416C0.39661 14.6083 0.250318 14.8367 0.150598 15.0883C0.0508779 15.3399 -0.000302536 15.6096 1.3453e-06 15.8819C1.3453e-06 16.4361 0.207521 16.957 0.581056 17.3478L3.17627 20.0624C3.77197 20.6881 4.59473 21.0431 5.43945 21.0431C5.61768 21.0431 5.78858 21.0278 5.95703 20.9971C9.24805 20.4302 12.5122 18.5991 15.1465 15.8462C17.7783 13.0957 19.5264 9.6839 20.0757 6.2312C20.2417 5.1765 19.9072 4.09114 19.1797 3.32501Z" fill="#5F5F5F"/>
</svg>
