<svg width="20" height="24" viewBox="0 0 20 24" fill="none" xmlns="http://www.w3.org/2000/svg">
<path d="M19.3333 12C19.3333 10.7132 18.2868 9.66668 17 9.66668H15.8333V6.16668C15.8333 2.95018 13.2165 0.333344 9.99996 0.333344C6.78346 0.333344 4.16663 2.95018 4.16663 6.16668V9.66668H2.99996C1.71313 9.66668 0.666626 10.7132 0.666626 12V21.3333C0.666626 22.6202 1.71313 23.6667 2.99996 23.6667H17C18.2868 23.6667 19.3333 22.6202 19.3333 21.3333V12ZM6.49996 6.16668C6.49996 4.23701 8.07029 2.66668 9.99996 2.66668C11.9296 2.66668 13.5 4.23701 13.5 6.16668V9.66668H6.49996V6.16668Z" fill="#5F5F5F"/>
</svg>
