<svg width="25" height="25" viewBox="0 0 25 25" fill="none" xmlns="http://www.w3.org/2000/svg">
<g clip-path="url(#clip0_448_17)">
<path fill-rule="evenodd" clip-rule="evenodd" d="M14.1521 2.08333C14.7046 2.08345 15.2344 2.30302 15.625 2.69374L20.2229 7.29166C20.6136 7.68227 20.8332 8.21209 20.8333 8.76458V20.8333C20.8333 21.3859 20.6138 21.9158 20.2231 22.3065C19.8324 22.6972 19.3025 22.9167 18.75 22.9167H13.5417C13.2654 22.9167 13.0004 22.8069 12.8051 22.6116C12.6097 22.4162 12.5 22.1513 12.5 21.875C12.5 21.5987 12.6097 21.3338 12.8051 21.1384C13.0004 20.9431 13.2654 20.8333 13.5417 20.8333H18.75V10.4167H14.0625C13.6481 10.4167 13.2507 10.252 12.9576 9.95902C12.6646 9.66599 12.5 9.26856 12.5 8.85416V4.16666H6.24999V8.33333C6.24999 8.6096 6.14024 8.87455 5.94489 9.0699C5.74954 9.26525 5.48459 9.375 5.20832 9.375C4.93205 9.375 4.6671 9.26525 4.47175 9.0699C4.2764 8.87455 4.16665 8.6096 4.16665 8.33333V4.16666C4.16665 3.61413 4.38615 3.08422 4.77685 2.69352C5.16755 2.30282 5.69745 2.08333 6.24999 2.08333H14.1521ZM7.29165 10.4167C8.09357 10.4166 8.87846 10.648 9.55213 11.083C10.2258 11.518 10.7596 12.1382 11.0896 12.8691C11.4195 13.6 11.5315 14.4105 11.4121 15.2035C11.2928 15.9965 10.9471 16.7382 10.4167 17.3396V21.7062C10.4167 21.9016 10.3668 22.0937 10.2717 22.2643C10.1766 22.4349 10.0394 22.5784 9.87326 22.6811C9.7071 22.7838 9.51745 22.8423 9.32231 22.8511C9.12717 22.8599 8.93303 22.8186 8.75832 22.7312L7.29165 21.9979L5.82499 22.7312C5.65028 22.8186 5.45614 22.8599 5.261 22.8511C5.06586 22.8423 4.87621 22.7838 4.71005 22.6811C4.54389 22.5784 4.40674 22.4349 4.31164 22.2643C4.21653 22.0937 4.16662 21.9016 4.16665 21.7062V17.3396C3.63619 16.7382 3.29053 15.9965 3.17117 15.2035C3.05181 14.4105 3.16382 13.6 3.49374 12.8691C3.82367 12.1382 4.3575 11.518 5.03118 11.083C5.70485 10.648 6.48974 10.4166 7.29165 10.4167V10.4167ZM8.33332 18.6187C7.65002 18.7947 6.93329 18.7947 6.24999 18.6187V20.1896L6.82603 19.9021C6.97061 19.8298 7.13002 19.7922 7.29165 19.7922C7.45328 19.7922 7.6127 19.8298 7.75728 19.9021L8.33332 20.1896V18.6187ZM7.29165 12.5C6.73912 12.5 6.20922 12.7195 5.81851 13.1102C5.42781 13.5009 5.20832 14.0308 5.20832 14.5833C5.20832 15.1359 5.42781 15.6658 5.81851 16.0565C6.20922 16.4472 6.73912 16.6667 7.29165 16.6667C7.84419 16.6667 8.37409 16.4472 8.76479 16.0565C9.15549 15.6658 9.37499 15.1359 9.37499 14.5833C9.37499 14.0308 9.15549 13.5009 8.76479 13.1102C8.37409 12.7195 7.84419 12.5 7.29165 12.5ZM14.5833 4.59791V8.33333H18.3187L14.5833 4.59791Z" fill="black"/>
</g>
<defs>
<clipPath id="clip0_448_17">
<rect width="25" height="25" fill="white"/>
</clipPath>
</defs>
</svg>
