<svg width="25" height="25" viewBox="0 0 25 25" fill="none" xmlns="http://www.w3.org/2000/svg">
<path d="M7.29167 15.625H14.5833V17.7083H7.29167V15.625ZM7.29167 11.4583H17.7083V13.5417H7.29167V11.4583ZM7.29167 7.29167H17.7083V9.375H7.29167V7.29167ZM19.7917 3.125H15.4375C15 1.91667 13.8542 1.04167 12.5 1.04167C11.1458 1.04167 10 1.91667 9.5625 3.125H5.20833C5.0625 3.125 4.92708 3.13542 4.79167 3.16667C4.45991 3.23627 4.15004 3.38547 3.88874 3.60141C3.62744 3.81734 3.42253 4.09355 3.29167 4.40625C3.1875 4.64583 3.125 4.91667 3.125 5.20833V19.7917C3.125 20.0729 3.1875 20.3542 3.29167 20.6042C3.39583 20.8542 3.55208 21.0729 3.73958 21.2708C4.02083 21.5521 4.38542 21.7604 4.79167 21.8438C4.92708 21.8646 5.0625 21.875 5.20833 21.875H19.7917C20.9375 21.875 21.875 20.9375 21.875 19.7917V5.20833C21.875 4.0625 20.9375 3.125 19.7917 3.125ZM12.5 2.86458C12.9271 2.86458 13.2812 3.21875 13.2812 3.64583C13.2812 4.07292 12.9271 4.42708 12.5 4.42708C12.0729 4.42708 11.7187 4.07292 11.7187 3.64583C11.7187 3.21875 12.0729 2.86458 12.5 2.86458ZM19.7917 19.7917H5.20833V5.20833H19.7917V19.7917Z" fill="black"/>
</svg>
