<svg width="25" height="17" viewBox="0 0 25 17" fill="none" xmlns="http://www.w3.org/2000/svg">
<path d="M19.2491 7.68229L19.4444 11.1111C19.4734 11.6102 19.1768 12.0732 18.5547 12.5C17.9326 12.9268 17.0826 13.265 16.0048 13.5145C14.9269 13.7641 13.7587 13.8889 12.5 13.8889C11.2413 13.8889 10.0731 13.7641 8.99522 13.5145C7.91739 13.265 7.06742 12.9268 6.44531 12.5C5.82321 12.0732 5.52662 11.6102 5.55556 11.1111L5.75087 7.68229L11.9792 9.64627C12.1383 9.6969 12.3119 9.72222 12.5 9.72222C12.6881 9.72222 12.8617 9.6969 13.0208 9.64627L19.2491 7.68229ZM25 4.16667C25 4.33304 24.9204 4.44517 24.7613 4.50304L12.6085 8.32248C12.5796 8.32972 12.5434 8.33333 12.5 8.33333C12.4566 8.33333 12.4204 8.32972 12.3915 8.32248L5.31684 6.08724C5.00579 6.33319 4.74899 6.73647 4.54644 7.29709C4.34389 7.85771 4.22092 8.50333 4.17752 9.23394C4.63325 9.49436 4.86111 9.8886 4.86111 10.4167C4.86111 10.9158 4.65133 11.3028 4.23177 11.5777L4.86111 16.276C4.87558 16.3773 4.84664 16.4677 4.77431 16.5473C4.7092 16.6269 4.6224 16.6667 4.51389 16.6667H2.43056C2.32205 16.6667 2.23524 16.6269 2.17014 16.5473C2.0978 16.4677 2.06887 16.3773 2.08333 16.276L2.71267 11.5777C2.29311 11.3028 2.08333 10.9158 2.08333 10.4167C2.08333 9.8886 2.31843 9.48712 2.78863 9.21224C2.8682 7.71484 3.22266 6.52127 3.852 5.63151L0.238715 4.50304C0.0795717 4.44517 0 4.33304 0 4.16667C0 4.00029 0.0795717 3.88817 0.238715 3.8303L12.3915 0.0108507C12.4204 0.0036169 12.4566 0 12.5 0C12.5434 0 12.5796 0.0036169 12.6085 0.0108507L24.7613 3.8303C24.9204 3.88817 25 4.00029 25 4.16667Z" fill="#5F5F5F"/>
</svg>
