<svg width="125" height="179" viewBox="0 0 125 179" fill="none" xmlns="http://www.w3.org/2000/svg">
<g clip-path="url(#clip0_74_209)">
<path fill-rule="evenodd" clip-rule="evenodd" d="M66.9659 88.9983H67.015C67.5549 89.0967 68.4629 90.6705 68.8555 91.1132C70.0579 92.5641 71.2604 93.9904 72.4628 95.4413C72.9536 96.0069 73.6407 96.6217 73.9842 97.2857C74.2542 97.8021 74.3278 98.5152 74.4996 99.0563C76.4627 105.893 78.3523 112.778 79.7756 119.738C80.0701 121.238 80.3645 122.738 80.5363 124.263C80.6099 125.025 80.8308 126.132 80.5118 126.845C80.1437 127.656 78.9658 128.001 78.1805 128.271C76.6699 128.734 75.1281 129.087 73.5671 129.329C69.8125 129.968 66.0334 130.337 62.2543 130.632C61.101 130.73 59.8986 130.73 58.7697 130.878C58.2299 130.952 58.3771 130.804 58.2053 131.173C57.9599 131.689 58.1317 132.747 58.1072 133.312C58.0335 134.64 57.9845 135.944 57.9108 137.272L57.371 148.043C57.1747 151.682 57.0029 155.322 56.8066 158.961L56.5857 163.093C56.5366 163.831 56.6593 164.79 56.463 165.503C56.3158 166.044 56.5612 165.872 55.8986 165.921C54.3772 165.995 52.7821 165.798 51.2606 165.749C49.5183 165.675 47.776 165.626 46.0582 165.552C45.5675 165.527 45.003 165.675 44.8067 165.331C44.5613 164.888 44.7577 163.708 44.7331 163.216C44.684 161.863 44.635 160.511 44.5859 159.158C44.4632 155.445 44.3159 151.756 44.1932 148.043C44.0215 142.977 43.8252 137.936 43.6534 132.87C41.7148 133.263 39.8007 133.657 37.862 134.05C35.0155 134.616 32.1443 135.206 29.2977 135.772C27.9971 136.042 26.4266 136.632 25.0769 136.436C23.7273 136.239 23.1874 135.673 23.1138 134.394C23.0402 133.017 23.0647 131.64 23.0892 130.288C23.1138 128.05 23.1874 125.812 23.261 123.574C27.0646 123.23 30.8928 122.886 34.6964 122.541C36.7332 122.369 38.7455 122.172 40.7822 122C41.2485 121.951 42.3773 122.049 42.5736 121.705C42.8927 121.164 42.5491 119.394 42.5246 118.779L42.4264 113L42.0828 91.728C42.9908 91.7526 43.8988 91.7771 44.8313 91.8017C48.8067 91.9247 52.7821 92.0722 56.7575 91.9493C58.7452 91.9001 60.6347 91.3591 62.5243 90.7197C63.5304 90.3754 64.512 90.0065 65.4936 89.6377C65.8126 89.5147 66.7205 88.9491 67.0396 88.9983H66.9659ZM61.6409 108.795L59.6041 118.73L66.5488 118.262L61.6409 108.795Z" fill="#0E4770"/>
<path fill-rule="evenodd" clip-rule="evenodd" d="M119.603 28.1586C119.456 29.2653 119.554 30.4703 118.327 30.7654C117.174 31.0359 115.898 30.9621 114.744 31.0605C113.419 31.1588 112.094 31.3064 110.794 31.4539C109.125 31.6261 109.37 30.9867 109.002 29.5604C108.659 28.257 108.143 26.9537 107.702 25.6995C107.502 25.1149 107.256 24.5474 106.965 24.0027C106.72 23.5108 106.843 22.8223 106.548 22.4042C105.616 20.9533 101.076 24.9125 100.659 24.1256C101.419 23.5354 102.745 22.8469 102.99 21.8386C103.26 20.6336 102.499 20.2647 101.542 20.7074C99.1068 21.8285 96.5314 22.6143 93.8858 23.0436C94.7202 22.478 102.254 18.0761 99.7262 16.7727C99.1618 16.4776 98.4011 17.0432 97.8858 17.24C97.0672 17.568 96.2214 17.8231 95.3582 18.0023C94.4502 18.2236 93.5668 18.445 92.6588 18.6663C92.0208 18.8138 90.892 19.3303 90.2785 19.2073C89.6405 19.0843 90.7693 18.6909 90.9411 18.5925C91.7264 18.199 92.5116 17.7564 93.2969 17.3383C94.6798 16.6088 95.9254 15.6435 96.9778 14.4857C97.7631 13.5758 99.0637 11.6085 98.5238 10.3789C98.2048 9.66575 97.5177 9.00177 97.1005 8.31321C96.6343 7.52628 96.2416 6.66557 95.8244 5.82946C96.5116 6.12456 97.2968 6.22292 98.0085 6.49343C98.7201 6.76394 99.4318 6.98526 100.168 7.20659C101.64 7.62464 103.113 7.69842 104.585 8.01811C106.254 8.38698 107.972 8.80504 109.665 9.02637C111.103 9.17874 112.488 9.65816 113.714 10.4281C116.236 12.0136 118.101 14.459 118.965 17.3137C119.481 19.0106 119.628 20.8057 119.677 22.5763C119.701 24.3961 119.849 26.3143 119.603 28.1586ZM105.199 28.3062C103.407 29.6095 101.321 30.6424 99.3827 31.749C98.2784 32.3884 97.1496 32.9786 96.0453 33.5688C95.26 33.9869 94.2785 34.7738 93.395 34.9951C92.8306 35.1427 92.8797 35.1427 92.5362 34.6262C92.1926 34.1344 91.8981 33.618 91.6037 33.1261C91.0147 32.2163 90.4503 31.2818 89.8613 30.3719C88.5607 28.3308 87.2356 26.2651 85.8614 24.2486C84.4872 22.2321 83.1621 20.191 81.8124 18.1253C81.1989 17.1662 80.5609 16.2317 79.9228 15.2972C79.4075 14.5841 78.1314 13.5266 78.7449 12.6905C79.3093 11.9282 80.6099 11.2888 81.3707 10.6986C82.3032 9.98544 83.2602 9.27228 84.1927 8.55912C86.205 7.00985 88.1681 5.4114 90.1804 3.86213C91.8981 6.8623 93.8858 9.66575 95.9226 12.4692C94.0822 13.6496 92.2417 14.7562 90.3031 15.7645C88.8798 16.5022 86.6957 17.5105 85.7878 18.9122C84.9044 20.2893 85.7632 21.8878 87.3583 21.9124C88.3153 21.937 89.2479 21.6665 90.1804 21.5435C90.8429 21.4451 92.0699 20.9533 92.6834 21.2976C91.6037 21.9861 87.6773 24.0027 89.7877 25.7733C91.3092 27.0274 93.8613 25.1831 95.5054 25.5765C95.0146 26.5356 94.4993 28.0603 95.8735 28.5767C97.0269 29.0193 98.5238 28.2078 99.579 27.7652C100.34 27.4455 101.076 27.1258 101.812 26.8061C102.401 26.5356 103.088 25.9946 103.726 25.8716C104.413 25.7487 105.91 27.7898 105.199 28.3062ZM71.8984 99.0071C72.9291 98.8104 73.4444 98.3923 73.7634 99.6465C74.0579 100.753 74.3278 101.835 74.7204 102.942C73.147 103.12 71.6784 103.822 70.5487 104.934C69.7144 105.696 68.0702 107.54 68.4629 108.819C69.469 111.942 74.4996 104.934 75.0885 104.171C75.8247 105.253 76.0947 106.655 76.4628 107.885C76.7327 108.745 77.6897 110.418 76.4137 110.639C74.6223 110.934 71.2849 111.598 71.5058 114.131C71.7512 117.107 75.5548 117.107 77.6652 117.229C78.8676 117.303 78.8676 118.262 79.0394 119.344C79.113 119.836 79.3584 120.476 78.9412 120.82C78.5732 121.14 77.4689 121.14 77.0026 121.238L72.88 122.123C71.3094 122.467 70.4996 122 69.0273 121.558C68.4874 121.41 67.9475 121.459 67.8985 120.869C67.8739 120.5 68.242 119.91 68.3647 119.541C68.8703 118.093 69.2079 116.591 69.3708 115.065C69.5671 112.852 69.3218 109.508 66.5979 109.065C65.2973 108.868 65.0519 108.795 64.4629 107.565C63.8249 106.237 62.8188 105.032 63.0642 103.507C63.2359 102.401 62.9415 100.31 63.6531 99.4005C63.9721 98.9825 64.6102 98.7366 65.0519 98.4169C65.5917 98.0234 66.1316 97.6054 66.6469 97.1627C67.0886 96.7938 67.604 96.0561 68.0948 95.7856C68.6837 95.4659 68.7083 95.6872 69.15 96.2036C69.7389 96.966 70.745 99.2284 71.8984 99.0071ZM74.7941 103.95C74.4505 104.663 73.6162 105.327 73.1008 105.942C72.5938 106.569 72.0532 107.169 71.4812 107.737C70.8432 108.327 68.5365 109.803 69.0518 107.835C69.4444 106.311 70.9168 105.081 72.2174 104.319C72.4628 104.147 75.383 102.72 74.7941 103.95ZM77.2971 111.205C77.518 112.213 77.6407 113.27 77.837 114.303C77.9351 114.819 78.475 116.098 78.2541 116.59C77.8861 117.451 74.4505 116.443 73.7389 116.147C72.0456 115.459 71.2849 113.639 72.8309 112.36C73.4444 111.868 77.0762 110.172 77.2971 111.205ZM79.5547 123.427C79.7511 124.41 80.2909 125.296 79.383 126.033C78.6222 126.648 77.3707 127.066 76.4137 127.287C75.1376 127.583 74.7204 126.869 74.0333 125.935C73.2972 124.927 72.5119 123.968 71.7266 123.033C74.2542 122.467 76.8063 121.902 79.3339 121.336C79.3345 122.039 79.4085 122.739 79.5547 123.427ZM73.4689 127.951C72.1438 127.878 70.7205 128.271 69.3708 128.394C67.7021 128.517 66.0334 128.714 64.3402 128.837C64.7819 127.46 65.5427 126.23 66.1561 124.927C66.7696 123.623 67.1868 123.476 68.5856 123.377C69.8862 123.279 70.7941 122.836 71.7512 123.943C72.7328 125.074 73.6407 126.328 74.5487 127.533C74.2297 127.73 73.8616 127.976 73.4689 127.951ZM63.9967 128.222C63.6777 128.468 62.6715 127.779 62.328 127.656C61.6654 127.41 61.5182 127.312 61.1746 126.673C60.8801 126.107 60.4139 125.492 60.3157 124.853C60.193 124.017 60.5611 122.91 60.7084 122.099C61.0765 122.959 62.2298 123.058 63.0396 123.205C63.6286 123.304 65.42 123.131 65.8617 123.574C66.3525 124.041 65.4445 125.369 65.1991 125.861C64.9046 126.427 64.5611 127.828 63.9967 128.222ZM63.3586 128.91C62.966 128.984 61.8372 129.378 61.8617 128.64C61.8863 127.828 63.4323 128.714 63.3586 128.91ZM61.3709 128.861C61.2973 129.55 59.8249 129.501 59.7759 128.886C59.7268 127.853 61.4936 127.755 61.3709 128.861ZM59.6777 110.196C59.3096 111.278 56.9784 111.672 56.0949 111.991C55.2851 112.287 52.8557 113.713 52.0214 113.196C54.8434 111.254 57.7636 109.336 60.144 106.852C60.2421 107.467 60.0949 107.983 59.9231 108.573C59.7513 109.09 59.8495 109.729 59.6777 110.196ZM58.9661 114.156C58.5489 116.811 58.1563 119.492 57.6164 122.123C56.5612 121.804 55.7023 121.14 54.598 120.918C53.5868 120.717 52.5477 120.701 51.5306 120.869C49.3711 121.189 47.4325 122.271 45.5429 123.304C45.3712 121.484 45.0031 119.541 45.0521 117.697C45.0767 116.172 47.6779 115.729 48.8558 115.09C49.5674 114.721 50.2054 114.18 51.0153 114.033C51.8496 113.885 52.6594 113.91 53.4692 113.639C55.4078 113.049 57.2483 112.09 59.1624 111.377C59.3096 112.336 59.1133 113.27 58.9661 114.156ZM57.1501 125.394C57.052 126.009 57.1747 127.066 56.7084 127.533C56.2667 127.976 55.3587 127.976 54.7943 128.099C53.052 128.468 51.3343 128.812 49.592 129.181C48.8067 129.353 48.046 129.501 47.2607 129.648C46.8926 129.722 45.9601 130.066 45.6411 129.771C45.3466 129.501 45.5675 128.591 45.592 128.222C45.6166 127.46 45.6656 126.722 45.6166 125.959C45.5184 124.509 45.6166 123.968 46.9417 123.205C48.3473 122.419 49.873 121.87 51.457 121.582C53.042 121.289 54.6779 121.46 56.1686 122.074C56.6103 122.246 57.2483 122.467 57.4446 122.935C57.7145 123.574 57.2483 124.755 57.1501 125.394ZM55.187 148.707C54.5489 149.1 53.1747 149.026 52.4385 149.125C51.2601 149.232 50.073 149.19 48.9048 149.002C48.0214 148.854 46.6963 148.682 46.0337 148.043C45.0767 147.157 46.181 147.108 46.9171 147.182C49.0521 147.354 51.2116 147.231 53.3711 147.084C53.7882 147.059 54.917 146.69 55.3097 146.862C55.8005 147.059 55.6287 148.412 55.187 148.707ZM53.9845 162.97C50.0091 162.576 47.6779 159.281 46.2546 155.887C45.4693 154.068 45.7638 152.174 45.6902 150.256C45.6656 149.912 45.4448 149.026 45.8129 148.781C46.1564 148.535 47.5061 149.297 47.8987 149.395C49.8303 149.879 51.8489 149.896 53.7882 149.444C54.6226 149.248 55.0643 148.879 55.3342 149.69C55.5551 150.354 55.2115 151.559 55.1624 152.248C55.0643 153.428 55.2606 163.093 53.9845 162.97ZM46.0092 162.97C45.9846 162.38 45.6902 156.527 45.9846 156.527C46.819 158.347 47.6779 159.97 49.2239 161.298C50.0004 162.009 50.898 162.576 51.8741 162.97C52.2422 163.117 54.3281 163.216 54.4262 163.658C54.598 164.47 53.1747 164.126 52.7576 164.077C52.414 164.027 52.1195 163.88 51.776 163.831C51.138 163.708 50.549 163.88 49.911 163.88C48.9539 163.904 47.9969 163.806 47.0398 163.88C46.1564 163.954 46.0337 163.855 46.0092 162.97ZM46.5981 136.706C50.0091 135.599 52.8557 137.69 54.6716 140.444C55.7023 142.018 55.9232 143.1 55.7514 144.944C55.6778 145.608 55.8005 146.051 55.187 146.321C54.5735 146.592 53.2238 146.395 52.5612 146.42C50.6993 146.551 48.8317 146.584 46.9662 146.518C45.7392 146.444 45.5675 146.248 45.592 145.067C45.6166 143.641 45.4939 142.239 45.4202 140.813C45.3466 139.239 44.8067 137.296 46.5981 136.706ZM45.4939 134.665C45.4939 133.607 45.4448 132.55 45.4939 131.493C45.5675 130.46 46.0092 130.509 46.9662 130.337C49.0766 129.943 51.187 129.525 53.2729 129.009C54.1072 128.812 55.0397 128.419 55.8986 128.419C56.8066 128.419 56.7575 128.886 56.6839 129.673C56.5612 131.443 56.2176 133.189 56.1195 134.96C56.0213 136.854 55.9477 138.796 55.9722 140.69C55.9722 141.329 56.1195 141.797 55.5796 141.206C55.0397 140.616 54.7698 139.657 54.279 138.968C53.2615 137.546 51.8036 136.5 50.1318 135.993C49.2221 135.731 48.2634 135.689 47.3343 135.87C47.0398 135.919 45.6411 136.608 45.4693 136.46C45.3466 136.362 45.4939 134.69 45.4939 134.665ZM57.9599 170.913C59.335 171.862 60.7977 172.678 62.328 173.348C63.1869 173.741 66.5488 174.528 66.6715 175.389C66.7206 175.856 66.1807 176.372 65.8126 176.421C65.3463 176.495 64.5856 176.176 64.0948 176.126C62.3771 175.905 60.6593 175.905 58.9661 175.438C55.6041 174.479 52.1195 174.208 48.7331 173.372C47.9233 173.175 47.1135 172.979 46.3037 172.807C45.5429 172.634 45.1994 172.659 45.1503 171.847C45.1012 170.028 45.6166 168.183 45.6166 166.339C48.365 166.659 51.1134 166.659 53.8618 166.905C55.0397 167.003 55.0152 167.249 55.5305 168.282C56.1325 169.331 56.9629 170.23 57.9599 170.913ZM44.5859 112.065C44.5614 111.401 44.5123 110.713 44.4632 110.049C44.4141 109.606 44.0215 108.352 44.2423 107.983C44.5123 107.565 44.7822 107.811 45.273 107.811C45.8909 107.767 46.485 107.555 46.9908 107.196C47.9635 106.554 48.7842 105.706 49.3956 104.712C49.9846 103.827 49.8619 102.647 49.8619 101.589C49.8374 98.8841 50.0337 96.2528 49.8864 93.5232C49.8128 92.269 50.868 93.0313 51.7269 93.2035C53.1256 93.474 54.6471 93.2772 56.0704 93.2772C56.0213 93.6215 53.1011 94.433 52.6349 94.7527C52.0401 95.1268 51.5587 95.6567 51.2429 96.2853C50.9272 96.9138 50.789 97.6169 50.8435 98.3185C51.0643 101.27 54.3036 101.761 56.6839 101.761C54.7207 103.507 52.7821 105.155 51.2361 107.319C50.1073 108.893 48.095 112.016 49.96 113.787C48.3159 114.721 46.6718 115.754 44.8313 116.221C44.7577 114.844 44.6595 113.442 44.5859 112.065ZM43.8497 58.2096C44.5123 58.6522 44.8067 58.0375 45.3221 57.7178C46.0337 57.2751 46.2791 57.3243 46.3773 56.316C46.5491 54.4717 45.7638 52.7994 44.8067 51.2993C44.365 50.6108 43.9233 49.7993 43.3098 49.2582C42.7454 48.7664 42.1565 48.9386 41.6411 48.4221C41.4448 48.2254 41.4694 47.9549 41.1258 47.9549C40.905 47.9549 40.3651 48.668 40.1688 48.8156C39.5798 49.3074 38.8682 49.6763 38.0829 49.2828C36.9541 48.6926 37.3222 46.5778 38.1811 45.8892C38.8436 45.3482 39.6534 45.4465 40.4142 45.3482C40.9786 45.2744 41.1013 45.299 40.8804 44.6596C40.7086 44.1924 40.3406 43.8481 40.1442 43.3808C39.7761 42.5201 39.8498 41.4627 39.7025 40.5528C39.5553 39.7413 39.2363 38.856 39.2363 38.0199C39.2608 36.9624 39.6044 36.6919 40.5123 36.3968C41.3957 36.1017 42.1319 35.4869 42.8927 34.9459C43.7515 34.3557 44.6841 33.9377 45.5675 33.3967C46.1564 33.0278 46.5491 32.2654 47.2116 32.6097C47.9969 33.0278 48.8067 34.2328 49.4693 34.8722C48.5122 35.4869 48.2668 35.7574 48.4141 36.9624C48.5368 38.0691 48.7576 39.0527 49.6165 39.8151C49.9355 40.1102 50.549 40.3561 50.7944 40.7004C51.0889 41.0938 50.8926 40.7495 50.868 41.1922C50.8435 41.4381 50.6472 41.5857 50.6962 41.8808C50.8926 43.1349 52.3158 42.3972 52.9048 41.9545C54.9907 40.4053 51.0889 39.1757 50.1564 38.6347C49.5183 38.2412 49.1993 37.0116 50.2054 37.3313C50.8926 37.5526 52.414 39.397 52.5612 37.7248C54.2299 38.7084 55.2851 40.7741 56.6839 42.1021C57.69 43.0612 59.0642 44.094 58.2544 45.6187C57.2238 47.5368 55.187 48.4221 53.322 49.2582C51.5306 50.0698 51.8987 52.3568 52.8557 53.7339C53.4 54.4879 54.1498 55.0686 55.0152 55.4061C55.9232 55.7996 56.0949 56.2669 56.2913 57.2013C56.5121 58.2342 56.2667 58.6522 55.3833 59.1933C54.5151 59.7265 53.6135 60.203 52.6839 60.6196C50.6717 61.5049 48.5858 61.5541 46.4509 61.8492C45.6902 61.9475 44.9785 62.1688 44.5859 61.4311C44.0951 60.595 44.046 59.1441 43.8497 58.2096ZM43.5307 54.2012C43.0154 53.9307 41.8129 54.816 41.1749 54.8651C40.1442 54.9389 39.4817 54.9143 38.5492 55.4553C36.8314 56.4882 35.3836 57.8161 34.0093 59.267C32.4388 60.8901 30.8928 62.5377 29.3468 64.1608C28.6352 64.8985 27.9235 65.6363 27.2119 66.3494C26.6475 66.915 26.1076 67.7266 25.396 68.1446C25.4205 67.6528 25.7395 67.3085 25.8377 66.8658C25.9113 66.5953 25.7886 66.374 25.8377 66.1281C25.8622 66.0543 26.0585 65.7592 26.1076 65.6609L26.4021 64.9231C26.5002 64.6772 26.4757 64.4313 26.5984 64.1854C26.6966 63.9394 26.991 63.7673 27.0892 63.4968C27.3837 62.759 26.8929 62.4148 26.1322 62.4393C26.4266 60.9639 26.5493 60.2261 28.0953 59.7097C29.578 59.2433 31.0088 58.6253 32.3652 57.8653C33.5676 57.1767 34.5738 56.1685 35.7271 55.4061C36.7578 54.7176 38.0584 53.9798 38.0584 52.5781C38.6473 52.9716 39.1872 53.3159 39.8743 52.9224C40.4387 52.5781 40.5123 52.3076 41.1749 52.2584C41.7148 52.2092 42.0338 52.1846 42.5246 52.4306C43.089 52.7011 43.1626 52.8978 43.4816 52.0863C43.8497 52.406 44.8067 53.7093 44.7577 54.2258C44.7331 54.5209 44.7086 54.6438 44.3405 54.7176C43.8742 54.7668 43.8988 54.3979 43.5307 54.2012ZM41.1749 131.714C40.9295 132.083 39.8988 132.009 39.5062 132.009C38.2792 131.984 37.8621 130.976 37.3222 129.993C36.4878 128.443 35.2363 125.197 36.6105 123.574C37.6903 122.295 39.8252 123.918 40.5614 124.877C41.1994 125.714 41.0031 126.992 41.0767 128.001C41.1258 128.837 41.6657 130.952 41.1749 131.714ZM37.8621 132.255C37.3713 132.747 35.8007 132.648 35.1627 132.747C34.0106 132.928 32.8713 133.182 31.7517 133.509C30.9174 133.755 30.1076 134.444 29.8867 133.288C29.7149 132.304 29.7885 131.148 29.8131 130.165C29.8376 129.107 29.9358 128.05 30.0339 126.992C30.1076 126.279 29.9358 124.976 30.5247 124.41C31.0155 123.943 32.2425 123.894 32.9051 123.746C33.9848 123.5 35.0891 123.156 36.1934 123.279C35.5553 125.05 35.4817 126.894 36.1934 128.64C36.3651 129.132 38.1565 131.96 37.8621 132.255ZM29.6904 125.246C29.4205 127.902 29.1505 130.558 29.3959 133.239C29.4205 133.386 29.5922 134.124 29.5186 134.247C29.445 134.37 28.7579 134.419 28.6106 134.468C27.9972 134.616 27.3837 134.763 26.7947 134.886C25.5923 135.132 25.445 134.37 25.2242 133.263C24.7334 130.902 25.6904 128.32 26.2794 126.033C26.5739 124.927 26.7702 124.804 27.8745 124.705C28.6106 124.656 29.7885 124.115 29.6904 125.246ZM25.077 135.132C24.6107 135.55 24.169 133.583 24.1199 133.386C23.9727 132.599 24.0463 131.788 24.0463 130.976C24.0463 129.722 23.9481 128.468 23.9481 127.214C23.9481 126.525 23.4328 125.148 24.2426 124.804C24.6999 124.716 25.1715 124.742 25.6168 124.877C26.0585 125.173 25.8868 125.345 25.7641 125.861C25.4696 126.992 25.2242 128.099 24.9788 129.255C24.7334 130.361 24.488 131.443 24.6107 132.575C24.6352 132.944 25.3714 134.886 25.077 135.132ZM39.6044 122.787C40.7086 122.467 40.7823 123.328 40.7823 124.14C40.6105 123.992 39.0154 122.935 39.6044 122.787ZM24.7579 62.9066C24.488 63.3492 22.7702 63.4722 22.2794 63.5952C21.3224 63.8165 20.3408 64.0624 19.3838 64.3083C17.5679 64.751 15.801 65.2674 13.9605 65.5133C14.9912 63.8903 15.2857 62.4639 15.1139 60.4228C14.9097 57.851 14.5326 55.2958 13.9851 52.7748C13.3961 50.2911 12.7336 47.8073 12.071 45.3482C11.752 44.1432 11.4084 42.9382 10.9913 41.7578C10.6477 40.8233 10.1078 39.6183 10.6968 38.6593C12.1692 39.7413 13.3471 40.8971 14.1814 42.5201C15.0894 44.2661 15.8501 46.0613 16.9053 47.7336C17.3715 48.4959 17.9359 49.1845 18.4513 49.9468C18.7458 50.3895 18.9666 51.0288 19.3592 51.3977C19.801 51.8158 20.2672 52.0371 20.5371 51.2993C20.8071 50.5124 19.9482 48.9877 19.6783 48.2746C19.0648 46.5286 18.4513 44.758 17.9605 42.9628C17.5679 41.5119 16.9298 39.7413 17.1507 38.2166C17.3715 36.6919 18.4022 37.774 18.9175 38.4871C19.9973 39.938 20.6353 41.6348 21.3469 43.3071C21.985 44.8318 22.7457 46.2827 23.4819 47.7582C23.7273 48.2746 24.0708 49.6025 24.7089 49.7501C25.6659 49.9714 25.5677 48.6189 25.4941 48.0779C24.8806 44.4629 23.3101 41.0201 22.9911 37.3313C22.9666 37.1592 22.7457 35.782 22.942 35.6837C23.2856 35.4623 23.7764 36.8395 23.9236 37.1838C24.6803 38.9628 25.3037 40.7958 25.7886 42.6677C26.2303 44.2416 26.6229 45.84 27.0892 47.4139C27.3591 48.2746 27.6536 49.1353 27.9726 49.9714C28.2426 50.7337 28.5125 52.0617 29.2241 52.5781C30.2303 53.2913 33.8376 51.5945 34.2057 53.1191C34.4756 54.2012 31.1137 55.0865 30.402 55.4061C29.4695 55.8488 28.537 56.316 27.6045 56.7587C26.8929 57.0784 25.8622 57.2259 25.3469 57.8407C24.807 58.5047 24.7089 59.4146 24.7089 60.2261C24.6598 60.8409 25.077 62.3656 24.7579 62.9066ZM22.4758 74.7843C22.4267 75.1286 22.1567 75.5713 22.0341 75.9156C21.7887 76.5795 21.5678 77.3665 21.2242 77.9813C20.9298 78.5223 20.4881 78.9895 20.1936 79.5305C19.9237 80.047 19.8746 80.6372 19.5556 81.1536C19.1875 81.7438 18.5985 82.1618 18.2304 82.752C18.0462 83.0764 17.8413 83.3886 17.6169 83.6865C16.7192 84.7265 15.8834 85.8186 15.1139 86.9572C14.9421 87.2523 14.0342 88.5556 13.6661 88.6294C12.9299 88.777 13.7888 87.7195 13.936 87.4982C14.9912 85.8998 15.9237 84.2275 16.9544 82.6291C17.9359 81.0552 18.9421 79.5059 19.8991 77.9321C20.6844 76.6287 21.1997 74.7843 22.4758 73.8745C22.5003 74.1773 22.5003 74.4815 22.4758 74.7843ZM56.9538 60.1769C57.5673 62.7099 58.3035 65.169 58.9906 67.6774C59.6286 70.0136 60.4875 72.4973 60.7574 74.8827C61.0392 77.2865 61.6076 79.6478 62.4507 81.9159C62.8188 82.9488 63.2114 84.0062 63.6286 85.039C63.8494 85.6047 64.0948 86.1703 64.3648 86.7113C64.5611 87.1293 65.0764 87.8425 65.1009 88.2851C65.1255 88.654 65.2482 88.5065 64.8801 88.777C64.512 89.0721 63.874 88.9491 63.4323 88.9983C62.3034 89.1213 61.1992 89.5639 60.0949 89.8344C57.9599 90.3754 55.4324 90.7935 53.2729 90.4246C52.3649 90.2771 51.4079 90.1295 50.4999 89.9328C49.3956 89.6869 49.1502 89.2196 48.9294 88.113C48.4386 85.703 47.9969 83.3176 47.5797 80.9077C47.0889 78.0304 46.5491 75.1532 46.181 72.276C45.7883 69.3496 45.5184 66.4232 44.9294 63.5214C47.3589 63.9148 49.6165 64.3821 52.0459 63.7181C54.0777 63.2191 55.8371 61.9496 56.9538 60.1769ZM66.4261 91.5066C66.966 92.6133 65.6654 93.6215 65.0273 94.4822C64.193 95.6134 63.4077 96.7938 62.4507 97.8267C62.1562 96.6709 61.9108 95.3429 61.1255 94.3839C60.144 93.1543 58.9906 93.6707 57.7636 93.0805C59.0397 92.4657 60.6593 92.687 62.009 92.146C63.3341 91.605 64.6838 91.1624 65.9353 90.4738C66.0825 90.8181 66.2543 91.1624 66.4261 91.5066ZM61.69 117.574C60.8801 117.623 61.42 115.902 61.4691 115.483C61.6163 114.303 61.7636 113.147 61.8863 111.967C62.5488 113.737 63.2359 115.508 63.8985 117.279C63.1623 117.377 62.4507 117.525 61.69 117.574ZM60.3648 126.058C60.4875 126.304 61.0028 127.14 60.5857 127.287C60.0213 127.509 59.9722 126.132 60.3648 126.058ZM59.4078 106.95C56.8066 109.016 54.2545 111.106 51.4324 112.877C50.8189 113.27 50.2054 113.442 49.7883 112.655C49.4693 112.041 49.8128 111.352 50.0091 110.762C50.5245 109.237 51.4324 107.909 52.4631 106.68C54.4753 104.196 56.8802 102.081 59.9476 101.122C60.4384 100.974 61.2237 100.483 61.3955 101.147C61.4936 101.54 61.0519 102.524 60.9783 102.893C60.6102 104.417 60.6838 105.942 59.4078 106.95ZM66.8678 122.074C66.9169 123.845 62.1317 122.418 61.5182 122.099C62.1562 121.902 66.8433 121.287 66.8678 122.074ZM68.6346 122.099C68.9291 122.172 70.0089 122.271 69.6162 122.64C69.2481 122.984 67.604 122.836 67.1623 122.886C67.4567 121.902 67.6776 121.828 68.6346 122.099ZM67.7512 119.738C67.6531 120.131 67.604 120.721 67.2604 120.992C66.8187 121.336 65.8862 121.115 65.3954 121.115C64.5611 121.115 63.7267 121.164 62.8924 121.238C62.5734 121.263 61.2728 121.656 60.9783 121.385C60.7575 121.189 60.8311 120.279 61.0028 120.058C61.3219 119.639 62.0826 119.787 62.5734 119.762C64.2911 119.738 66.0089 119.738 67.7512 119.738ZM66.6469 113.221C66.4254 112.966 66.2882 112.648 66.2543 112.311C66.1316 111.721 65.8617 111.205 65.6899 110.639C65.3218 109.385 66.4997 109.508 67.3586 109.95C69.5917 111.155 69.0518 115.311 68.5119 117.279C67.7021 116.688 67.4077 116.418 67.1377 115.459C67.0396 115.09 66.9169 114.746 66.7942 114.377C66.696 114.131 66.7696 113.418 66.6469 113.221ZM66.8433 92.933C67.4567 92.8592 68.0457 94.8019 67.8494 95.22C67.4813 96.0807 66.0825 96.843 65.3709 97.384C64.9095 97.78 64.4261 98.1495 63.923 98.4907C63.4568 98.7858 63.1869 98.6136 62.7452 98.7612C62.1071 98.9579 61.9599 99.6465 61.3219 99.917C60.4139 100.31 59.3096 100.433 58.3526 100.802C57.2636 101.215 56.0783 101.3 54.9416 101.048C53.1993 100.753 51.1625 99.8924 51.3343 97.7775C51.6042 94.0396 59.0151 92.1214 61.0274 95.2938C61.5427 96.1299 61.5427 97.0889 61.8863 97.9742C62.2544 98.9333 62.6225 98.5644 63.1623 97.8513C63.8985 96.9168 64.5611 95.9577 65.2727 94.9987C65.4936 94.679 66.377 92.9821 66.8433 92.933ZM21.4942 129.279C21.4696 129.919 21.4942 130.558 21.2733 131.173C21.0525 131.788 20.6108 132.28 20.3408 132.87C19.8255 134.075 19.8255 135.526 19.85 136.829C19.8991 139.829 20.6108 142.731 20.9789 145.707C19.7273 145.707 18.4513 145.707 17.2243 145.362C16.1446 145.043 15.9728 144.256 15.6538 143.247C14.7949 140.444 13.8624 137.665 13.5925 134.714C13.4698 133.312 13.3961 131.911 13.3471 130.509C13.298 129.279 13.5679 128.738 14.6722 128.124C17.0771 126.796 19.5801 125.689 21.9604 124.312C21.7396 125.959 21.5923 127.607 21.4942 129.279ZM124.315 30.9867C123.726 30.8883 123.137 30.8145 122.548 30.7408C122.229 30.6916 121.272 30.7654 121.051 30.544C120.781 30.2981 121.247 28.4783 121.272 28.1095C121.419 25.7733 121.247 23.3633 121.027 21.0271C120.634 16.7973 119.309 12.8872 116.266 9.83789C114.744 8.31321 113.027 7.13281 110.965 6.54261C109.763 6.19833 108.511 6.02619 107.284 5.7065C106.303 5.43599 105.395 5.14089 104.364 5.04252C102.327 4.8212 100.487 4.05886 98.4993 3.61621C97.0514 3.29652 94.6956 2.50959 93.7631 4.15723C93.0558 3.32093 92.2386 2.58466 91.3337 1.96857C90.4258 1.35378 90.2785 0.7144 89.1988 1.45215C87.0638 2.85387 85.0516 4.55069 83.0639 6.14915C81.1989 7.64924 79.4075 9.19851 77.4443 10.5756C75.4566 11.9774 75.8247 14.3382 76.7572 16.3055C78.5241 19.9942 81.248 23.1665 83.6283 26.3389C85.1252 28.3308 86.6221 30.3227 88.0945 32.29C89.5178 34.1836 90.7448 36.3968 92.3889 38.0937C93.4441 39.1757 94.6711 37.774 95.6281 37.11C96.806 36.2985 97.9594 35.4623 99.1128 34.6508C101.567 32.9786 104.168 31.4047 106.745 29.9292C106.941 30.4703 107.113 30.9867 107.309 31.5277C106.745 31.5769 105.984 31.4539 105.689 32.0441C105.272 32.9048 106.278 33.0278 106.475 33.5196C106.622 33.9623 105.984 35.1427 105.788 35.5361C105.341 36.4236 104.77 37.2433 104.094 37.9707C101.469 40.9217 98.1557 43.0366 94.7693 45.0531C91.1619 47.2171 87.2847 48.5205 83.3338 49.8976C81.3216 50.6108 79.2357 50.9305 77.1744 51.3731C75.1867 51.8158 73.1745 52.3814 71.1377 52.5535C66.966 52.8978 62.5243 53.1437 58.4017 52.2338C57.9599 52.1355 57.4691 51.9141 57.0029 51.8895C56.6348 51.865 56.3649 52.0125 56.0213 52.0371C55.2851 52.0863 54.8434 51.4223 54.2545 52.0371C53.96 52.3568 53.96 52.8732 53.5428 52.283C53.0275 51.5453 54.3526 51.3977 54.868 51.201C56.5366 50.4878 57.8863 49.0615 58.9661 47.6352C60.0213 46.1843 60.193 44.6596 59.5305 42.9628C58.8924 41.266 57.4201 40.1348 56.2913 38.7576C55.7514 38.0937 55.2606 37.4051 54.6716 36.7657C54.3526 36.446 53.8618 36.1263 53.8373 35.782C53.8128 35.3886 54.0336 35.1918 53.9109 34.7246C53.8864 34.6016 53.7146 34.5279 53.6901 34.4049C53.6778 34.2002 53.6778 33.9949 53.6901 33.7901C53.6168 33.3605 53.4399 32.9553 53.1747 32.6097C53.003 32.3638 52.7576 31.872 52.5367 31.6998C52.1441 31.3801 51.6042 31.5031 51.187 31.1834C50.549 30.667 50.3281 29.585 49.7637 28.9456C48.9539 28.0603 48.8067 28.9456 47.9478 28.6751C47.2362 28.4291 47.2362 27.3471 46.6472 26.9782C45.8129 26.4618 45.1258 27.4209 44.3896 27.6176C43.4325 27.8881 43.8006 26.8061 42.9417 26.7077C42.1565 26.6094 41.1013 28.1832 40.7086 28.7488C40.316 28.2816 39.8743 27.4947 39.1872 27.7898C38.451 28.0849 38.3038 29.462 37.7639 29.9538C37.5676 30.126 37.6167 30.2489 37.3713 30.3227C37.0768 30.4211 36.6596 29.9784 36.2915 30.126C35.5063 30.3965 35.6044 31.4539 35.6044 32.1179C34.6719 31.9703 34.0339 31.9212 33.7149 32.9048C33.4204 33.8885 33.2977 33.4458 32.3161 33.7655C31.4818 34.036 31.3591 34.8476 31.2118 35.6345C31.1523 36.0158 31.1946 36.4061 31.3345 36.7657C31.5063 37.3313 31.5063 37.3067 31.2364 37.8477C30.7701 38.7822 30.7456 39.8151 30.672 40.8233C30.5984 41.9054 30.402 42.9136 30.721 43.971C30.9174 44.635 30.9174 45.5203 31.5799 45.9138C31.8253 46.0613 32.267 45.9876 32.4879 46.1351C32.9051 46.4056 32.7824 46.8237 33.0523 47.2417C33.2486 47.5368 33.5922 47.586 33.8376 47.8319C34.083 48.1024 34.1075 48.4221 34.2547 48.7418C34.6719 49.7009 35.0891 50.1681 33.6903 50.2419C32.8314 50.2665 31.9235 50.537 31.0646 50.4632C30.0585 50.3649 29.8131 49.7993 29.4941 48.9386C27.8745 44.6104 27.0156 39.9134 24.8806 35.782C24.4144 34.8722 22.5003 31.1834 21.6905 33.8639C21.0034 36.1263 21.9114 38.9052 22.2549 41.1676C21.1752 40.1839 20.7825 38.4379 19.9482 37.2329C19.3347 36.3476 17.4452 34.1836 16.3409 35.4378C15.4575 36.4214 15.6783 38.4871 15.8501 39.6429C16.0955 41.4873 16.6844 43.2579 17.1261 45.0777C16.5863 44.3891 16.3409 43.5284 15.9728 42.7661C15.5088 41.782 14.9411 40.8504 14.2796 39.9872C13.7138 39.2273 13.0724 38.527 12.3655 37.8969C11.8256 37.4051 10.8931 36.3231 10.1324 36.2739C8.19375 36.1263 8.80724 39.6921 9.10171 40.7004C9.7152 42.8152 10.3778 44.8563 10.844 47.0204C11.7765 51.2256 12.9053 55.3324 13.5925 59.6113C13.7397 60.5458 13.936 61.3081 13.5434 62.218C13.2244 63.0296 12.8808 63.964 12.2673 64.5788C10.9209 65.9559 9.73531 67.4822 8.73362 69.1283C7.62934 70.9235 6.50052 72.7432 5.6171 74.6614C5.19993 75.5467 4.85637 76.4812 4.39012 77.3419C3.97295 78.1042 3.45762 78.719 3.13861 79.5551C1.69077 83.5881 0.611033 87.5474 0.120242 91.8263C-0.27239 95.3429 0.0957028 99.9907 4.3165 100.827C6.25513 101.196 7.99743 100.335 9.73974 99.6219C11.5557 98.8841 12.8563 97.6791 14.3286 96.425C16.1691 94.8511 18.0586 93.351 19.9237 91.8017C21.7887 90.2525 23.4819 88.5311 25.3469 86.9572C27.1518 85.4108 28.8414 83.7341 30.402 81.9405C31.9726 80.1453 33.2241 78.178 34.7455 76.3582C34.7455 78.6944 34.402 81.0306 34.3038 83.3668C34.2057 85.5063 34.2057 87.6703 34.3038 89.8098C34.402 91.9493 33.813 93.9904 33.813 96.1545C33.813 98.2447 33.7149 100.335 33.6903 102.401C33.6658 103.335 33.494 104.393 33.8376 105.303C34.1075 105.967 34.9173 106.188 35.629 106.36C36.7087 106.63 39.9725 106.089 40.4387 107.245C40.7086 107.885 40.4387 109.016 40.4632 109.729C40.4878 110.885 40.5369 112.016 40.5859 113.172C40.635 114.352 40.6596 115.557 40.7086 116.738C40.7577 117.795 40.954 118.951 40.8313 119.984C40.7332 120.869 40.2179 120.746 39.3835 120.795C38.1565 120.869 36.905 120.918 35.678 120.967C33.8621 121.041 31.9726 121.017 30.2303 121.213C29.4941 121.312 28.7088 121.262 27.9235 121.41C26.9816 121.562 26.0307 121.653 25.077 121.681C24.2917 121.73 23.261 121.656 22.6475 122.246C22.4267 122.443 22.3776 122.689 22.2304 122.91C21.9359 123.328 22.1077 123.23 21.6414 123.328C19.8255 123.671 18.0374 124.147 16.2918 124.754C15.3838 125.074 14.574 125.492 13.6661 125.787C12.8808 126.033 12.2919 126.353 11.8992 127.14C11.2121 128.517 11.3839 130.534 11.433 132.034C11.5066 134.37 12.0219 136.583 12.5863 138.845C13.1753 141.182 13.617 143.592 14.7458 145.756C15.1139 146.469 15.5065 147.379 16.2673 147.748C17.2488 148.215 18.7458 147.944 19.8255 147.944C20.5371 147.944 22.4512 148.19 22.9911 147.6C23.5064 147.01 22.9911 145.362 22.9175 144.649C22.6721 142.116 22.2058 139.559 22.2058 137.001C22.7948 137.862 23.8009 139.362 24.807 138.034C25.0524 137.714 24.9543 137.567 25.396 137.37C25.7279 137.259 26.077 137.209 26.4266 137.222C26.7947 137.247 26.9174 137.395 27.261 137.321C27.5554 137.247 27.899 137.001 28.218 136.903C32.4143 135.895 36.586 134.837 40.8068 133.927C41.9111 133.681 41.7638 134.542 41.8375 135.526C41.9111 136.583 41.7638 137.665 41.9111 138.723C42.0745 139.624 42.0911 140.546 41.9602 141.452C41.7393 142.534 41.8865 143.444 42.1074 144.526C42.9172 148.682 42.77 153.207 42.9663 157.437C43.0644 159.65 42.8681 161.888 43.0644 164.077C43.1381 164.913 43.6043 165.355 43.8006 166.118C44.0215 166.978 43.4325 168.085 43.2608 168.921C42.8927 170.593 42.2792 173.003 43.4325 174.479C44.046 175.266 44.8558 175.389 45.7883 175.659C46.8926 175.979 47.9723 176.348 49.0766 176.643C53.1011 177.749 57.4691 177.971 61.6163 178.586C62.6012 178.708 63.5959 178.733 64.5856 178.659C65.2236 178.61 66.7696 178.831 67.285 178.438C67.5549 178.241 67.4322 177.995 67.5549 177.749C67.7482 177.446 68.0194 177.199 68.3402 177.036C68.9046 176.667 69.5672 176.471 69.6653 175.708C69.9107 173.889 67.6285 172.929 66.4015 172.118C64.8555 171.11 62.966 170.716 61.3219 169.905C60.4139 169.462 59.5305 168.946 58.6471 168.429C58.279 168.208 57.4937 167.962 57.2238 167.593C56.9538 167.224 57.2238 166.732 57.3219 166.216C57.7882 164.101 57.6164 161.937 57.8618 159.798C58.1072 157.658 58.0336 155.494 58.1072 153.33C58.1808 151.117 58.3771 148.903 58.4998 146.69C58.6225 144.649 58.7697 142.559 58.7697 140.518C58.7943 138.624 59.0397 136.755 59.1133 134.837C59.1378 134.198 59.0151 133.017 59.4568 132.452C59.8249 131.96 61.0765 132.034 61.6654 131.935C63.2359 131.714 64.7329 131.517 66.2788 131.37C69.9843 131.05 74.0824 130.804 77.567 129.501C79.0149 128.96 80.929 128.247 81.3952 126.574C81.9351 124.681 81.2234 122.32 81.1989 120.377C81.1744 118.287 80.5609 116.27 80.1191 114.254C79.6284 112.09 79.3339 109.877 78.794 107.713C78.3032 105.721 77.5425 103.975 76.7818 102.081C76.4873 101.319 74.7695 98.6874 75.3094 98.048C75.6039 97.7037 76.61 97.6054 77.0272 97.4578C77.9357 97.1234 78.8141 96.7121 79.6529 96.2282C80.7572 95.5643 83.1866 94.4822 83.2848 93.0313C83.3829 91.6296 82.0332 90.2279 81.3216 89.1459C80.1928 87.3753 78.794 85.8506 77.7388 84.0554C75.5793 80.4158 73.8861 76.4566 72.3156 72.5465C71.5058 70.5054 71.2358 68.5627 71.0886 66.3986C73.4689 66.3986 75.8984 66.6937 78.2541 66.374C80.8308 66.0051 83.4074 65.3903 85.9596 64.8985C90.5975 63.9886 95.0637 62.9312 99.3827 60.8655C103.407 58.9228 107.505 56.8079 110.843 53.7339C112.56 52.1355 114.327 50.537 115.824 48.7172C117.346 46.8483 118.499 44.7334 119.701 42.6431C120.99 40.3257 122.051 37.8878 122.867 35.364C123.039 34.8476 123.039 34.2082 123.235 33.7163C123.481 33.1753 123.898 33.1507 124.364 32.8802C125.002 32.5359 125.419 31.1834 124.315 30.9867Z" fill="black"/>
<path fill-rule="evenodd" clip-rule="evenodd" d="M68.8554 5.09169C69.3953 5.55893 71.7511 7.20656 72.5118 6.8131C73.4443 6.32127 71.9719 4.82118 71.5793 4.4523C71.064 3.98506 69.248 2.55875 68.5609 2.7063C67.1622 2.95222 68.3646 4.67363 68.8554 5.09169" fill="black"/>
<path fill-rule="evenodd" clip-rule="evenodd" d="M70.0333 22.0353C70.3524 21.4205 71.1622 21.1992 71.5302 20.609C71.9965 19.8958 72.1928 19.2811 72.021 18.4203C70.8677 18.8138 69.5425 19.9942 68.7573 20.9287C68.0947 21.7156 67.1868 23.3387 68.88 23.3387C68.8554 23.1173 68.8554 22.8714 68.8309 22.6501C69.0704 22.6872 69.3154 22.6478 69.5312 22.5374C69.7471 22.4271 69.9228 22.2514 70.0333 22.0353Z" fill="black"/>
<path fill-rule="evenodd" clip-rule="evenodd" d="M64.4629 11.9282C65.2236 12.1495 65.8371 12.1249 66.5978 12.1249C67.1622 12.1495 67.9229 12.4446 68.3647 12.1003C67.972 11.879 68.4628 11.8544 68.3647 11.6331C68.291 11.4363 68.1193 11.5101 67.9966 11.3626C67.5303 10.8215 67.1377 10.8215 66.4015 10.7232C65.8371 10.6248 65.0027 10.4281 64.4629 10.7232C63.923 10.9937 63.7021 11.7068 64.4629 11.9282" fill="black"/>
<path fill-rule="evenodd" clip-rule="evenodd" d="M75.1621 28.6505C75.6529 28.2324 76.1683 27.052 76.2664 26.4618C76.3155 26.2159 76.1437 26.0438 76.1437 25.8716C76.1928 25.5273 76.8799 24.888 76.1437 24.6174C75.5057 24.3715 74.9167 26.2405 74.7695 26.6586C74.5977 27.0766 74.156 27.8881 74.3032 28.2816C74.4259 28.6013 74.8431 28.921 75.1621 28.6505" fill="black"/>
<path fill-rule="evenodd" clip-rule="evenodd" d="M80.978 3.34568C81.4197 2.92763 81.6897 2.48498 81.6406 1.91937C81.616 1.47672 81.2725 -0.0479591 80.9044 0.0012241C79.6774 0.124182 80.2173 4.03425 80.978 3.34568Z" fill="black"/>
<path fill-rule="evenodd" clip-rule="evenodd" d="M54.8679 71.5874C54.7697 71.2185 54.4016 68.9315 53.7636 69.0791C53.2728 69.202 53.7881 71.194 53.8127 71.4645C53.8618 72.0055 52.8066 72.0055 52.3158 71.9317C51.5305 71.8087 51.6041 71.3661 51.4814 70.6529C51.4323 70.3824 51.2606 69.1774 50.6962 69.6201C50.3281 69.9152 50.598 71.4153 50.6225 71.7596C50.7207 72.94 50.8679 74.9565 51.555 76.0385C51.825 76.4566 52.0949 76.6779 52.3894 76.1369C52.6839 75.5713 52.0213 73.8744 51.8986 73.3088C52.463 73.358 54.0581 73.1859 54.4016 73.7515C54.6961 74.2679 54.2298 75.7926 55.2114 75.9155C55.8004 75.9893 55.6777 75.3008 55.6286 74.7843C55.4477 73.7026 55.1936 72.6345 54.8679 71.5874" fill="black"/>
<path fill-rule="evenodd" clip-rule="evenodd" d="M56.365 71.071C55.7269 71.3661 56.5367 75.6205 57.4693 75.4729C58.5735 75.3008 56.9785 70.7759 56.365 71.071Z" fill="black"/>
<path fill-rule="evenodd" clip-rule="evenodd" d="M55.6533 69.6447C55.5797 70.6038 56.8067 70.948 56.8803 69.9152C56.9048 69.1283 55.7269 68.6364 55.6533 69.6447Z" fill="black"/>
<path fill-rule="evenodd" clip-rule="evenodd" d="M48.8313 44.2415C49.3957 46.3564 54.5735 47.2663 53.8619 44.4137C53.5183 42.9874 52.0705 44.2661 51.0398 44.094C50.3773 43.971 48.4141 42.7414 48.8313 44.2415" fill="black"/>
<path fill-rule="evenodd" clip-rule="evenodd" d="M47.5307 40.4544C47.7761 39.3232 45.2976 38.0691 44.3896 38.3887C43.0645 38.856 43.089 41.7578 44.0952 42.5447C44.2179 42.6431 44.635 42.889 44.8313 42.6923C45.1504 42.3972 44.8068 42.471 44.7332 42.1513C44.6105 41.6594 44.2424 41.0446 44.6105 40.479C45.3221 39.4462 47.1871 42.0775 47.5307 40.4544Z" fill="black"/>
<path fill-rule="evenodd" clip-rule="evenodd" d="M39.9724 45.963C39.089 45.9138 38.3528 47.2909 39.6534 47.1925C39.8988 47.1679 40.4386 47.1188 40.5859 46.8483C40.8558 46.4056 40.365 45.9875 39.9724 45.963Z" fill="black"/>
<path fill-rule="evenodd" clip-rule="evenodd" d="M83.2603 12.8873C82.9659 12.4446 82.3033 11.7314 81.7634 12.1741C81.2726 12.5676 81.3708 13.5512 81.5426 14.0185C82.0579 15.3218 83.2358 16.4776 84.5855 15.7399C84.1192 14.7808 83.8738 13.748 83.2603 12.8873" fill="black"/>
</g>
<defs>
<clipPath id="clip0_74_209">
<rect width="125" height="178.697" fill="white"/>
</clipPath>
</defs>
</svg>
